<?xml version="1.0" encoding="utf-8"?>
<!-- Generator: Adobe Illustrator 23.0.2, SVG Export Plug-In . SVG Version: 6.00 Build 0)  -->
<svg version="1.1" xmlns="http://www.w3.org/2000/svg" xmlns:xlink="http://www.w3.org/1999/xlink" x="0px" y="0px"
	 viewBox="0 0 255.12 127.56" style="enable-background:new 0 0 255.12 127.56;" xml:space="preserve">
<style type="text/css">
	.st0{fill:#FFFFFF;}
	.st1{fill:#7955FF;}
</style>
<g id="bg">
	<rect x="0" class="st0" width="255.12" height="127.56"/>
</g>
<g id="Layer_2">
	<path class="st1" d="M87.71,37.46c-1.28,0-2.32-1.04-2.32-2.32s1.04-2.32,2.32-2.32c1.28,0,2.32,1.04,2.32,2.32
		S89,37.46,87.71,37.46z M85.12,38.27c0-1.25-1.01-2.26-2.26-2.26c-1.25,0-2.26,1.01-2.26,2.26c0,1.25,1.01,2.26,2.26,2.26
		C84.1,40.53,85.12,39.52,85.12,38.27z M79.72,40.42c0-1.23-1-2.23-2.23-2.23s-2.23,1-2.23,2.23c0,1.23,1,2.23,2.23,2.23
		S79.72,41.65,79.72,40.42z M74.07,41.77c0-1.22-0.99-2.21-2.21-2.21c-1.22,0-2.21,0.99-2.21,2.21c0,1.22,0.99,2.21,2.21,2.21
		C73.08,43.98,74.07,42.99,74.07,41.77z M68.29,42.43c0-1.21-0.98-2.19-2.19-2.19c-1.21,0-2.19,0.98-2.19,2.19
		c0,1.21,0.98,2.19,2.19,2.19C67.31,44.62,68.29,43.64,68.29,42.43z M62.5,42.45c0-1.21-0.98-2.19-2.19-2.19s-2.19,0.98-2.19,2.19
		c0,1.21,0.98,2.19,2.19,2.19S62.5,43.66,62.5,42.45z M56.76,41.82c0-1.22-0.99-2.21-2.21-2.21c-1.22,0-2.21,0.99-2.21,2.21
		s0.99,2.21,2.21,2.21C55.77,44.04,56.76,43.04,56.76,41.82z M51.15,40.5c0-1.23-1-2.23-2.23-2.23c-1.23,0-2.23,1-2.23,2.23
		c0,1.23,1,2.23,2.23,2.23C50.15,42.74,51.15,41.74,51.15,40.5z M45.79,38.38c0-1.25-1.01-2.26-2.26-2.26
		c-1.25,0-2.26,1.01-2.26,2.26c0,1.25,1.01,2.26,2.26,2.26C44.77,40.64,45.79,39.63,45.79,38.38z M40.96,35.27
		c0-1.28-1.04-2.32-2.32-2.32c-1.28,0-2.32,1.04-2.32,2.32c0,1.28,1.04,2.32,2.32,2.32C39.92,37.6,40.96,36.56,40.96,35.27z
		 M39.29,93.44c3.03-2.71,10.45-7.39,23.89-7.53c13.44,0.14,20.86,4.82,23.89,7.53l2.77-3.28c-2.46-2.07-11.4-7.87-26.66-7.83
		c-15.27-0.04-24.2,5.76-26.66,7.83L39.29,93.44z M100.84,61.66c0,0-18.83,0.36-37.66,0.36c-18.83,0-37.66-0.36-37.66-0.36v4.29
		c0,0,18.83-0.36,37.66-0.36s37.66,0.36,37.66,0.36V61.66z M28.78,80.27c2.78-0.75,14.65-4.18,34.4-4.29
		c19.75,0.12,31.62,3.55,34.4,4.3l1.04-4.17c-2.92-0.66-17.04-3.79-35.44-3.71c-18.4-0.08-32.52,3.04-35.44,3.71L28.78,80.27z
		 M52.76,102.25c1.15-1.87,4.38-6.29,10.42-6.39c6.03,0.09,9.27,4.52,10.42,6.39l3.5-2.49c-1.67-2.08-6.37-7.57-13.92-7.48
		c-7.55-0.09-12.25,5.4-13.92,7.48L52.76,102.25z M31.88,48.88c0-1.45-1.18-2.63-2.63-2.63c-1.45,0-2.63,1.18-2.63,2.63
		c0,1.45,1.18,2.63,2.63,2.63C30.71,51.5,31.88,50.33,31.88,48.88z M38.47,50.28c0-1.39-1.13-2.52-2.52-2.52s-2.52,1.13-2.52,2.52
		c0,1.39,1.13,2.52,2.52,2.52S38.47,51.68,38.47,50.28z M45.16,51.33c0-1.35-1.1-2.45-2.45-2.45c-1.35,0-2.45,1.1-2.45,2.45
		c0,1.35,1.1,2.45,2.45,2.45C44.06,53.78,45.16,52.69,45.16,51.33z M51.91,52.05c0-1.33-1.07-2.4-2.4-2.4c-1.33,0-2.4,1.07-2.4,2.4
		c0,1.33,1.07,2.4,2.4,2.4C50.83,54.45,51.91,53.38,51.91,52.05z M58.71,52.47c0-1.32-1.07-2.38-2.38-2.38
		c-1.32,0-2.38,1.07-2.38,2.38c0,1.32,1.07,2.38,2.38,2.38C57.65,54.85,58.71,53.78,58.71,52.47z M65.53,52.59
		c0-1.3-1.06-2.36-2.36-2.36s-2.36,1.06-2.36,2.36c0,1.3,1.06,2.36,2.36,2.36S65.53,53.89,65.53,52.59z M72.39,52.47
		c0-1.32-1.07-2.38-2.38-2.38c-1.32,0-2.38,1.07-2.38,2.38c0,1.32,1.07,2.38,2.38,2.38C71.32,54.85,72.39,53.78,72.39,52.47z
		 M79.23,52.05c0-1.33-1.07-2.4-2.4-2.4s-2.4,1.07-2.4,2.4c0,1.33,1.07,2.4,2.4,2.4S79.23,53.38,79.23,52.05z M86.09,51.33
		c0-1.35-1.1-2.45-2.45-2.45c-1.35,0-2.45,1.1-2.45,2.45c0,1.35,1.1,2.45,2.45,2.45C84.99,53.79,86.09,52.69,86.09,51.33z
		 M92.92,50.29c0-1.39-1.13-2.52-2.52-2.52c-1.39,0-2.52,1.13-2.52,2.52c0,1.39,1.13,2.52,2.52,2.52
		C91.79,52.81,92.92,51.68,92.92,50.29z M99.72,48.88c0-1.45-1.18-2.63-2.63-2.63s-2.63,1.18-2.63,2.63c0,1.45,1.18,2.63,2.63,2.63
		S99.72,50.33,99.72,48.88z M55,27.58c0-1.23-0.99-2.22-2.22-2.22c-1.23,0-2.22,0.99-2.22,2.22c0,1.23,0.99,2.22,2.22,2.22
		C54.01,29.8,55,28.81,55,27.58z M59.63,31.04c0-1.17-0.95-2.12-2.12-2.12c-1.17,0-2.12,0.95-2.12,2.12c0,1.17,0.95,2.12,2.12,2.12
		C58.68,33.15,59.63,32.21,59.63,31.04z M65.26,32.46c0-1.15-0.93-2.08-2.08-2.08c-1.15,0-2.08,0.93-2.08,2.08
		c0,1.15,0.93,2.08,2.08,2.08C64.33,34.54,65.26,33.61,65.26,32.46z M70.96,31.04c0-1.17-0.95-2.12-2.12-2.12s-2.12,0.95-2.12,2.12
		c0,1.17,0.95,2.12,2.12,2.12S70.96,32.21,70.96,31.04z M75.8,27.58c0-1.23-0.99-2.22-2.22-2.22c-1.23,0-2.22,0.99-2.22,2.22
		c0,1.23,0.99,2.22,2.22,2.22C74.8,29.8,75.8,28.81,75.8,27.58z"/>
	<g>
		<path class="st1" d="M121.94,61.84v-4.41h2.33c3.84-0.02,6.33-2.11,6.33-5.32c0-3.28-2.49-5.48-6.2-5.48h-5.35v15.21H121.94z
			 M121.94,49.17h2.31c1.99,0,3.38,1.19,3.38,2.9c0,1.4-1.05,2.81-3.38,2.81h-2.31V49.17z M156.64,61.84h-3.09l-1.16-2.93
			l-6.63-0.04l-1.28,3.01l-11.27-0.04V46.63h2.88v12.7h6.46l5.58-12.74l1.93,0.04L156.64,61.84z M151.47,56.45l-2.41-5.77
			l-2.43,5.77H151.47z M163.13,61.84V49.17h4.44v-2.53h-12.43v2.53h5.11v12.68H163.13z M173.09,61.84v-5.24h6.44v-2.53h-6.44v-4.91
			h7.4v-2.53h-10.28v15.21H173.09z M198.03,54.27c0-4.54-3.35-7.83-7.96-7.83c-4.59,0-8.05,3.37-8.05,7.83
			c0,4.43,3.46,7.77,8.05,7.77C194.68,62.04,198.03,58.77,198.03,54.27z M195.08,54.27c0,2.92-2.16,5.13-5.02,5.13
			c-2.91,0-5.11-2.2-5.11-5.13c0-2.95,2.2-5.17,5.11-5.17C192.93,49.1,195.08,51.32,195.08,54.27z M213.53,61.92
			c0.01,0,0.02,0,0.02,0.01v-2.26c-0.17,0.02-0.35,0.02-0.52,0.02c-1.08,0-1.68-0.72-2.31-1.49c-0.37-0.45-0.75-0.91-1.24-1.23
			l-0.1-0.06l0.11-0.05c1.97-0.88,3.1-2.6,3.1-4.74c0-3.33-2.42-5.48-6.18-5.48h-5.32v15.21h2.88v-4.39h2.07
			c0.7,0.03,1.25,0.79,1.87,1.67c0.92,1.3,2.07,2.91,4.23,2.91C212.94,62.04,213.43,61.92,213.53,61.92z M203.97,49.15h2.29
			c2.05,0,3.38,1.16,3.38,2.97c0,1.7-1.38,2.84-3.42,2.84h-2.25V49.15z M218.94,61.91l0.16-9.45l4.21,7.59l1.82,0.03l4.35-7.62
			l0.07,9.38h2.9l-0.39-15.21l-1.82-0.03l-5.99,10.17l-5.8-10.14l-1.83-0.06l-0.48,15.27L218.94,61.91z"/>
		<path class="st1" d="M131.39,71.69c0-3.52-2.62-6.07-6.22-6.07c-3.57,0-6.27,2.61-6.27,6.07c0,3.43,2.7,6.02,6.27,6.02
			C128.78,77.71,131.39,75.18,131.39,71.69z M128.61,71.69c0,2.01-1.48,3.52-3.44,3.52c-1.99,0-3.49-1.51-3.49-3.52
			c0-2.03,1.5-3.55,3.49-3.55C127.16,68.14,128.61,69.63,128.61,71.69z M136.91,77.56V73.8h4.73v-2.38h-4.73v-3.26h5.5v-2.38h-8.22
			v11.78H136.91z M155.67,77.56v-9.4h3.61v-2.38h-10.2v2.38h3.88v9.4H155.67z M171.55,77.61c0.01,0,0.02,0,0.02,0v-2.12
			c-0.13,0.01-0.28,0.01-0.41,0.01c-0.81,0-1.19-0.41-1.64-0.88c-0.24-0.26-0.49-0.52-0.84-0.76l-0.09-0.06l0.1-0.05
			c1.43-0.71,2.22-2,2.22-3.62c0-2.61-1.97-4.36-4.9-4.36h-4.29v11.78h2.71v-3.18h1.19c0.5,0.02,0.88,0.55,1.31,1.15
			c0.7,0.97,1.57,2.18,3.39,2.18C171.03,77.71,171.45,77.61,171.55,77.61z M164.44,68.12h1.4c1.35,0,2.3,0.83,2.3,2.01
			c0,1.11-0.94,1.89-2.28,1.89h-1.42V68.12z M184.65,72.39v-6.61h-2.71v6.83c0,1.24-0.69,2.69-2.62,2.69
			c-1.91,0-2.59-1.45-2.59-2.69v-6.83h-2.72v6.61c0,3.33,1.98,5.32,5.3,5.32C182.65,77.71,184.65,75.72,184.65,72.39z M195.97,74.08
			c0-2.33-1.55-3.03-3.43-3.65l-0.34-0.11c-1.38-0.45-2.01-0.65-2.01-1.34c0-0.66,0.58-1.03,1.64-1.03c1.26,0,2.25,0.49,2.88,0.92
			l1.27-1.99c-1.06-0.81-2.52-1.26-4.11-1.26c-2.7,0-4.44,1.4-4.44,3.56c0,2.13,1.6,2.81,3.54,3.43c1.62,0.51,2.28,0.8,2.28,1.64
			c0,0.72-0.54,1.13-1.49,1.13c-1.26,0-2.41-0.42-3.51-1.29l-1.36,2.09c1.32,1.04,2.84,1.53,4.79,1.53
			C194.33,77.71,195.97,76.32,195.97,74.08z M204.4,77.56v-9.4h3.9v-2.38h-10.49v2.38h3.88v9.4H204.4z"/>
	</g>
</g>
<g id="guides">
</g>
</svg>
